<?xml version="1.0" encoding="UTF-8"?>
<svg id="Layer_2" data-name="Layer 2" xmlns="http://www.w3.org/2000/svg" width="219.0122" height="83.8261" viewBox="0 0 219.0122 83.8261">
  <defs>
    <style>
      .cls-1 {
        fill-rule: evenodd;
      }

      .cls-1, .cls-2 {
        fill: #d42029;
        stroke-width: 0px;
      }
    </style>
  </defs>
  <g id="Layer_1-2" data-name="Layer 1">
    <g id="Layer_1-2" data-name="Layer 1-2">
      <g>
        <g>
          <path class="cls-2" d="m74.5589,75.7974c-.3045,0-.5374-.1297-.7002-.3905-.1615-.2607-.1787-.5361-.0477-.8299l4.5707-10.9139c.1615-.3799.4276-.5692.7969-.5692.3905,0,.6552.1893.7969.5692l4.5867,10.9471c.1192.3032.1006.5771-.0569.8221-.1575.2436-.3932.3654-.7082.3654-.1615,0-.3164-.0463-.4633-.1377-.1456-.0927-.2515-.2197-.3164-.3825l-4.0346-10.0205h.4554l-4.0982,10.0205c-.0768.1734-.188.3032-.3336.3905-.1469.086-.2965.1297-.4474.1297h-.0001Zm.8617-2.7983l.6513-1.3978h6.3763l.6499,1.3978h-7.6775,0Z"/>
          <path class="cls-2" d="m87.1646,75.8133c-.2396,0-.4368-.0781-.5944-.2356s-.2356-.3547-.2356-.593v-7.2552c0-.2489.0781-.4501.2356-.6023.1575-.1509.3547-.2277.5944-.2277.2489,0,.4487.0768.6009.2277.1522.1522.2277.3534.2277.6023v7.2552c0,.2382-.0755.4355-.2277.593s-.3521.2356-.6009.2356Zm6.6847,0c-.2382,0-.4369-.0781-.5944-.2356-.1562-.1575-.2357-.3547-.2357-.593v-4.0016c0-.6182-.1138-1.1225-.3415-1.513s-.5334-.6804-.9186-.8696c-.3852-.1906-.8273-.2846-1.3263-.2846-.4554,0-.8671.0913-1.235.2753-.3693.1853-.6619.4315-.8789.7413-.2171.3084-.3257.6632-.3257,1.0643h-1.0246c0-.6831.1655-1.2933.4964-1.8294.3309-.5374.7836-.9623,1.3581-1.2773.5745-.3137,1.2205-.4712,1.9352-.4712.7492,0,1.4177.1602,2.0094.4805.5904.319,1.0576.7876,1.3992,1.4058s.5123,1.378.5123,2.2781v4.0016c0,.2382-.0794.4355-.2369.593-.1562.1575-.3547.2356-.593.2356h0Z"/>
          <path class="cls-2" d="m100.9417,75.44c-.2065.086-.3984.094-.5771.0238s-.323-.2092-.4315-.4143l-3.7249-7.0765c-.1085-.2052-.1218-.4037-.0397-.593.0807-.1893.225-.3283.4302-.4143.2065-.0874.4011-.0953.5864-.0252.184.0715.3243.2092.4222.4157l3.5621,7.0752c.1085.2065.1496.4037.1218.593-.0265.1906-.143.3283-.3495.4157h0Zm-1.9194,4.261c-.1085,0-.2382-.0318-.3905-.098-.4765-.2171-.6076-.5586-.3905-1.0246l4.9612-11.2065c.2171-.4554.5586-.5864,1.0246-.3905.4884.2065.6234.548.4077,1.0246l-4.9784,11.1906c-.1297.3362-.3415.5044-.6341.5044h0Z"/>
          <path class="cls-2" d="m107.0255,75.8133c-.2396,0-.4369-.0781-.5944-.2356s-.2357-.3547-.2357-.593v-7.2552c0-.2489.0781-.4501.2357-.6023.1575-.1509.3547-.2277.5944-.2277.2489,0,.4487.0768.6009.2277.1522.1522.2277.3534.2277.6023v7.2552c0,.2382-.0755.4355-.2277.593s-.3521.2356-.6009.2356Zm6.6847,0c-.2382,0-.4369-.0781-.5944-.2356-.1562-.1575-.2357-.3547-.2357-.593v-4.0016c0-.6182-.1138-1.1225-.3415-1.513s-.5334-.6804-.9186-.8696c-.3852-.1906-.8273-.2846-1.3263-.2846-.4554,0-.8671.0913-1.235.2753-.3693.1853-.6619.4315-.8789.7413-.2171.3084-.3257.6632-.3257,1.0643h-1.0246c0-.6831.1655-1.2933.4964-1.8294.3309-.5374.7836-.9623,1.3581-1.2773.5745-.3137,1.2205-.4712,1.9352-.4712.7492,0,1.4177.1602,2.0094.4805.5904.319,1.0576.7876,1.3992,1.4058s.5123,1.378.5123,2.2781v4.0016c0,.2382-.0794.4355-.2369.593-.1562.1575-.3547.2356-.593.2356h0Z"/>
          <path class="cls-2" d="m121.4684,75.8623c-.9001,0-1.6997-.1919-2.3999-.5771-.6989-.3852-1.247-.916-1.6427-1.5937s-.593-1.456-.593-2.335c0-.8882.1867-1.6719.5612-2.3496.3733-.6777.8921-1.2098,1.5527-1.5937.6619-.3852,1.4203-.5784,2.2781-.5784.8458,0,1.5712.188,2.1788.5612.6076.3746,1.0709.8896,1.3912,1.5461.319.6552.4792,1.4124.4792,2.2688,0,.2052-.0702.3772-.2105.5123-.1417.135-.3204.2025-.5374.2025h-6.555v-1.3012h6.5061l-.6671.4554c-.0106-.5414-.1192-1.0272-.3243-1.4547-.2065-.4289-.499-.7678-.8789-1.0166-.3799-.2502-.8406-.3746-1.382-.3746-.6182,0-1.1476.1363-1.5858.4064-.4395.2714-.7731.6433-1.0008,1.1146s-.3415,1.006-.3415,1.6017c0,.597.135,1.1278.4064,1.595.2714.4659.6446.8353,1.1225,1.1053.4765.2714,1.0246.4064,1.6427.4064.3362,0,.6804-.0622,1.0325-.1867s.6367-.2687.8538-.4315c.1628-.1192.3389-.1813.5295-.1867.1893-.0053.3547.0516.4951.1707.1853.1628.2819.3415.2939.5374.0106.1946-.0768.3627-.2607.5044-.3693.2925-.8273.5308-1.374.7148-.548.1853-1.0709.2767-1.5699.2767h0Z"/>
          <path class="cls-2" d="m131.244,75.8623c-.9001,0-1.6997-.1919-2.3999-.5771-.6989-.3852-1.247-.916-1.6427-1.5937s-.593-1.456-.593-2.335c0-.8882.1867-1.6719.5612-2.3496.3733-.6777.8921-1.2098,1.5527-1.5937.6619-.3852,1.4203-.5784,2.2781-.5784.8458,0,1.5712.188,2.1788.5612.6076.3746,1.0709.8896,1.3912,1.5461.319.6552.4792,1.4124.4792,2.2688,0,.2052-.0702.3772-.2105.5123-.1417.135-.3204.2025-.5374.2025h-6.555v-1.3012h6.5061l-.6671.4554c-.0106-.5414-.1192-1.0272-.3243-1.4547-.2065-.4289-.499-.7678-.8789-1.0166-.3799-.2502-.8406-.3746-1.382-.3746-.6182,0-1.1476.1363-1.5858.4064-.4395.2714-.7731.6433-1.0008,1.1146s-.3415,1.006-.3415,1.6017c0,.597.135,1.1278.4064,1.595.2714.4659.6446.8353,1.1225,1.1053.4765.2714,1.0246.4064,1.6427.4064.3362,0,.6804-.0622,1.0325-.1867s.6367-.2687.8538-.4315c.1628-.1192.3389-.1813.5295-.1867.1893-.0053.3547.0516.4951.1707.1853.1628.2819.3415.2939.5374.0106.1946-.0768.3627-.2607.5044-.3693.2925-.8273.5308-1.374.7148-.548.1853-1.0709.2767-1.5699.2767h0Z"/>
          <path class="cls-2" d="m140.8726,75.8623c-.8458,0-1.607-.1972-2.2847-.593s-1.2152-.9359-1.611-1.6189-.593-1.4535-.593-2.3099.1814-1.6242.5454-2.3019c.3627-.6777.8591-1.2138,1.4878-1.6097s1.3396-.5944,2.1312-.5944c.6394,0,1.2297.1337,1.7724.3984.5427.2661.9981.6261,1.366,1.0828v-4.392c0-.2502.0781-.4501.2357-.6023s.3561-.2277.5944-.2277c.2489,0,.4501.0755.6023.2277.1509.1522.2277.3521.2277.6023v7.4167c0,.8564-.1985,1.6268-.5944,2.3099s-.9293,1.2231-1.6017,1.6189-1.4322.593-2.2781.593h0Zm0-1.464c.5533,0,1.0471-.1324,1.4812-.3984.4329-.2647.7744-.6314,1.0246-1.0973.2489-.4659.3733-.9875.3733-1.562,0-.5851-.1244-1.1053-.3733-1.562-.2502-.4554-.5917-.8154-1.0246-1.0815-.4342-.2647-.9279-.3984-1.4812-.3984-.5414,0-1.0325.1337-1.472.3984-.4382.2661-.7863.6261-1.0404,1.0815-.2555.4567-.3825.9769-.3825,1.562,0,.5745.127,1.096.3825,1.562.2542.4659.6023.8326,1.0404,1.0973.4395.2661.9306.3984,1.472.3984Z"/>
          <path class="cls-2" d="m152.6986,75.7974c-.3045,0-.5374-.1297-.7002-.3905-.1615-.2607-.1787-.5361-.0477-.8299l4.5707-10.9139c.1615-.3799.4276-.5692.7969-.5692.3905,0,.6552.1893.7969.5692l4.5867,10.9471c.1192.3032.1006.5771-.0569.8221-.1575.2436-.3932.3654-.7082.3654-.1615,0-.3164-.0463-.4633-.1377-.1456-.0927-.2515-.2197-.3164-.3825l-4.0346-10.0205h.4554l-4.0982,10.0205c-.0768.1734-.188.3032-.3336.3905-.1469.086-.2965.1297-.4474.1297h-.0001Zm.8617-2.7983l.6513-1.3978h6.3763l.6499,1.3978h-7.6775,0Z"/>
          <path class="cls-2" d="m165.3042,75.8133c-.2396,0-.4369-.0781-.5944-.2356s-.2357-.3547-.2357-.593v-7.2552c0-.2489.0781-.4501.2357-.6023.1575-.1509.3547-.2277.5944-.2277.2489,0,.4487.0768.6009.2277.1522.1522.2277.3534.2277.6023v7.2552c0,.2382-.0755.4355-.2277.593s-.3521.2356-.6009.2356Zm6.6847,0c-.2382,0-.4369-.0781-.5944-.2356-.1562-.1575-.2357-.3547-.2357-.593v-4.0016c0-.6182-.1138-1.1225-.3415-1.513s-.5334-.6804-.9186-.8696c-.3852-.1906-.8273-.2846-1.3263-.2846-.4554,0-.8671.0913-1.235.2753-.3693.1853-.6619.4315-.8789.7413-.2171.3084-.3257.6632-.3257,1.0643h-1.0246c0-.6831.1655-1.2933.4964-1.8294.3309-.5374.7836-.9623,1.3581-1.2773.5745-.3137,1.2205-.4712,1.9352-.4712.7492,0,1.4177.1602,2.0094.4805.5904.319,1.0576.7876,1.3992,1.4058s.5123,1.378.5123,2.2781v4.0016c0,.2382-.0794.4355-.2369.593-.1562.1575-.3547.2356-.593.2356h0Z"/>
          <path class="cls-2" d="m179.0801,75.44c-.2065.086-.3984.094-.5771.0238s-.323-.2092-.4315-.4143l-3.7249-7.0765c-.1085-.2052-.1218-.4037-.0397-.593.0807-.1893.225-.3283.4302-.4143.2065-.0874.4011-.0953.5864-.0252.184.0715.3243.2092.4222.4157l3.5621,7.0752c.1085.2065.1495.4037.1218.593-.0265.1906-.143.3283-.3495.4157Zm-1.9194,4.261c-.1085,0-.2382-.0318-.3905-.098-.4765-.2171-.6076-.5586-.3905-1.0246l4.9612-11.2065c.2171-.4554.5586-.5864,1.0246-.3905.4884.2065.6234.548.4077,1.0246l-4.9784,11.1906c-.1297.3362-.3415.5044-.6341.5044h0Z"/>
          <path class="cls-2" d="m183.9592,68.6243c-.2277,0-.4117-.0649-.552-.1946-.1417-.131-.2118-.2939-.2118-.4884,0-.2171.0702-.3905.2118-.5202.1403-.131.3243-.1959.552-.1959h3.758c.2277,0,.4117.0649.5533.1959.1403.1297.2105.3032.2105.5202,0,.1946-.0702.3574-.2105.4884-.1417.1297-.3257.1946-.5533.1946h-3.758Zm3.6111,7.1732c-.5414,0-1.0298-.1377-1.464-.4143-.4329-.2767-.7744-.6539-1.0246-1.1305-.2489-.4779-.3732-1.014-.3732-1.611v-7.7582c0-.2382.0755-.4342.2277-.5864.1509-.1509.3468-.2277.5851-.2277s.4329.0768.5851.2277c.1522.1522.2277.3482.2277.5864v7.7582c0,.4342.1192.7969.3587,1.0894.2382.2939.5308.4395.8776.4395h.5533c.1946,0,.36.0768.4964.2277.135.1522.2025.3482.2025.5864s-.0887.4329-.2674.5851c-.18.1522-.4104.2277-.6923.2277h-.2925,0Z"/>
          <path class="cls-2" d="m191.8485,65.4527c-.2925,0-.5441-.1059-.7558-.3177s-.3177-.4633-.3177-.7558.1059-.5454.3177-.7571c.2118-.2105.4633-.3164.7558-.3164.2939,0,.5454.1059.7571.3164.2118.2118.3164.4646.3164.7571s-.1045.5441-.3164.7558-.4633.3177-.7571.3177Zm0,10.3447c-.2382,0-.4355-.0781-.593-.2356s-.2356-.3547-.2356-.5944v-7.238c0-.2489.0781-.4501.2356-.6023.1575-.1509.3547-.2277.593-.2277.2502,0,.4501.0768.6023.2277.1522.1522.2277.3534.2277.6023v7.238c0,.2396-.0755.4368-.2277.5944s-.3521.2356-.6023.2356Z"/>
          <path class="cls-2" d="m196.5993,75.8133c-.2396,0-.4368-.0781-.5944-.2356s-.2356-.3547-.2356-.593v-7.2393c0-.2489.0781-.4487.2356-.6009s.3547-.2277.5944-.2277c.2489,0,.4487.0755.6009.2277s.2277.3521.2277.6009v7.2393c0,.2382-.0755.4355-.2277.593s-.3521.2356-.6009.2356Zm5.4325,0c-.2382,0-.4368-.0781-.5944-.2356s-.2356-.3547-.2356-.593v-4.6528c0-.6831-.1681-1.19-.5044-1.521-.3362-.3296-.7757-.4951-1.3171-.4951-.5639,0-1.0311.1946-1.3992.5851-.3693.3905-.5533.8896-.5533,1.4958h-1.0246c0-.7042.1417-1.325.4236-1.8624.2819-.5361.6711-.9557,1.1702-1.2602.4991-.3032,1.0683-.4554,1.7089-.4554.6182,0,1.1648.1363,1.6427.4064.4766.2714.8485.6698,1.1133,1.1953.2661.5269.3984,1.1635.3984,1.9114v4.6528c0,.2382-.0755.4355-.2277.593-.1509.1575-.3521.2356-.6009.2356h.0001Zm5.4166,0c-.2396,0-.4368-.0781-.5944-.2356s-.2356-.3547-.2356-.593v-4.6528c0-.6831-.1681-1.19-.5044-1.521-.3362-.3296-.7757-.4951-1.3171-.4951-.5639,0-1.0272.1946-1.3912.5851-.3627.3905-.5454.8896-.5454,1.4958h-1.3489c0-.7042.1509-1.325.4554-1.8624.3032-.5361.7281-.9557,1.276-1.2602.548-.3032,1.1741-.4554,1.8797-.4554.6169,0,1.1648.1363,1.6427.4064.4766.2714.8485.6698,1.1133,1.1953.2661.5269.3984,1.1635.3984,1.9114v4.6528c0,.2382-.0755.4355-.2277.593-.1509.1575-.3521.2356-.6009.2356h0Z"/>
          <path class="cls-2" d="m215.2066,75.8623c-.9001,0-1.6997-.1919-2.3999-.5771-.6989-.3852-1.247-.916-1.6427-1.5937s-.593-1.456-.593-2.335c0-.8882.1867-1.6719.5612-2.3496.3732-.6777.8922-1.2098,1.5527-1.5937.6619-.3852,1.4203-.5784,2.2781-.5784.8458,0,1.5712.188,2.1788.5612.6076.3746,1.0709.8896,1.3912,1.5461.319.6552.4792,1.4124.4792,2.2688,0,.2052-.0702.3772-.2105.5123-.1417.135-.3204.2025-.5374.2025h-6.555v-1.3012h6.506l-.6671.4554c-.0106-.5414-.1192-1.0272-.3243-1.4547-.2065-.4289-.4991-.7678-.8789-1.0166-.3799-.2502-.8406-.3746-1.382-.3746-.6182,0-1.1477.1363-1.5858.4064-.4395.2714-.7731.6433-1.0008,1.1146s-.3415,1.006-.3415,1.6017c0,.597.135,1.1278.4064,1.595.2714.4659.6446.8353,1.1225,1.1053.4766.2714,1.0246.4064,1.6427.4064.3362,0,.6804-.0622,1.0325-.1867s.6367-.2687.8538-.4315c.1628-.1192.3389-.1813.5295-.1867.1893-.0053.3547.0516.4951.1707.1853.1628.2819.3415.2939.5374.0106.1946-.0768.3627-.2607.5044-.3693.2925-.8273.5308-1.374.7148-.548.1853-1.0709.2767-1.5699.2767h.0001Z"/>
        </g>
        <g>
          <path class="cls-2" d="m87.0427,54.9042c-2.5546,0-4.8633-.5579-6.8618-1.6587-2.0088-1.1049-3.6053-2.6537-4.7436-4.6037-1.1371-1.946-1.7134-4.2024-1.7134-6.707,0-2.5247.5435-4.7894,1.6156-6.7317,1.0778-1.9515,2.5903-3.5035,4.496-4.6123,1.9029-1.1075,4.1074-1.6688,6.5527-1.6688,2.4233,0,4.5467.5504,6.3097,1.6363,1.7664,1.0885,3.1327,2.6059,4.0613,4.5101.9137,1.8752,1.3767,4.0533,1.3767,6.4738,0,.7882-.2896,1.4837-.8372,2.0111-.5475.5268-1.2384.7934-2.0543.7934h-15.4768c.1561.4997.3639.9742.623,1.4192.6437,1.1083,1.5465,1.9973,2.6825,2.6421,1.1388.6477,2.474.9759,3.9698.9759.7974,0,1.6299-.152,2.4746-.4514.8556-.3023,1.547-.6489,2.056-1.03.5884-.4313,1.2327-.6575,1.9225-.6777l.0915-.0017c.6944,0,1.3116.2251,1.8355.6679.6909.6091,1.0548,1.3006,1.0974,2.067.0311.5712-.1244,1.4002-1.0439,2.1032-1.053.8366-2.3836,1.5315-3.9416,2.0554-1.5505.5228-3.0619.7876-4.492.7876h-.0001Zm5.123-15.8171c-.1273-.4992-.2976-.973-.5101-1.4158-.4865-1.0102-1.1555-1.7857-2.0451-2.3706-.8671-.5694-1.9512-.8582-3.2224-.8582-1.4825,0-2.7579.3227-3.7896.9592-1.0416.6431-1.8102,1.5001-2.3508,2.6197-.1635.3397-.304.6955-.4197,1.0657h12.3378,0Z"/>
          <path class="cls-2" d="m115.3031,54.9042c-2.4182,0-4.6308-.5763-6.5757-1.7129-1.9438-1.1348-3.504-2.7031-4.6382-4.6613-1.136-1.9593-1.7117-4.1932-1.7117-6.6384,0-2.4354.5268-4.6529,1.566-6.5915,1.0432-1.9457,2.4901-3.5101,4.3008-4.6501,1.8222-1.1466,3.9036-1.7281,6.1859-1.7281,1.8436,0,3.5742.3901,5.1449,1.159.8706.4269,1.6697.9437,2.3911,1.5447v-9.6288c0-.9146.304-1.6717.9028-2.2504.5902-.57,1.3328-.859,2.2069-.859.9079,0,1.6616.2925,2.2391.8694.5781.5792.87,1.3326.87,2.2399v19.8948c0,2.4446-.5758,4.678-1.7117,6.6384-1.1342,1.9575-2.6864,3.5253-4.6141,4.6601-1.9317,1.1371-4.1379,1.714-6.5561,1.714h-.0001Zm0-20.2869c-1.3017,0-2.4435.3078-3.4908.9413-1.0404.6293-1.8741,1.4961-2.478,2.5762-.6057,1.0818-.9126,2.3462-.9126,3.7568,0,1.3853.3086,2.6514.9166,3.7637.6039,1.1066,1.4365,1.9852,2.474,2.6128,1.0473.6333,2.189.9413,3.4908.9413,1.3289,0,2.4763-.3069,3.5086-.939,1.0352-.6339,1.8303-1.4871,2.4308-2.6082.5959-1.1147.8982-2.3831.8982-3.7706,0-1.4129-.3011-2.6795-.8947-3.7643-.6-1.0936-1.3962-1.9351-2.4348-2.5716-1.0318-.6313-2.1792-.9385-3.5081-.9385h0Z"/>
          <path class="cls-2" d="m145.6915,54.9042c-2.5017,0-4.7488-.5602-6.6782-1.6656-1.9345-1.1066-3.477-2.6565-4.5836-4.6066-1.1037-1.942-1.664-4.1955-1.664-6.6971,0-2.5293.5602-4.7974,1.6645-6.7412,1.106-1.9487,2.6479-3.4986,4.583-4.606,1.9311-1.1052,4.1783-1.6656,6.6782-1.6656,2.4706,0,4.7027.5605,6.6344,1.6656,1.9334,1.1072,3.4752,2.6568,4.583,4.606,1.1049,1.946,1.6645,4.2136,1.6645,6.7412,0,2.4988-.5516,4.7505-1.6398,6.6931-1.0939,1.9524-2.6295,3.504-4.564,4.6106-1.9299,1.1054-4.1771,1.6656-6.6782,1.6656h.0001Zm0-20.2869c-1.3438,0-2.5408.3097-3.5587.9209-1.0208.6126-1.8366,1.4751-2.4262,2.5639-.5947,1.0997-.8965,2.3888-.8965,3.8328,0,1.4428.3011,2.7239.8942,3.8075.5895,1.0755,1.4066,1.9322,2.4285,2.546,1.0185.6114,2.216.9212,3.5587.9212s2.539-.3097,3.5587-.9212c1.0329-.6206,1.8188-1.4509,2.402-2.539.5821-1.0853.8768-2.3692.8768-3.8144,0-1.4463-.296-2.7383-.8791-3.8397-.5826-1.1011-1.368-1.9374-2.4003-2.5569-1.0179-.6111-2.2155-.9209-3.5582-.9209h0Z"/>
          <path class="cls-2" d="m176.0362,54.9042c-2.4187,0-4.625-.5769-6.5566-1.714-1.9287-1.136-3.4747-2.7049-4.5945-4.6647-1.1187-1.9575-1.7008-4.1863-1.7307-6.6229v-19.9058c0-.9154.304-1.6725.9033-2.2506.5895-.5697,1.3323-.8587,2.2063-.8587.9079,0,1.661.2925,2.2385.8694.5781.5786.8706,1.332.8706,2.2399v9.6502c.7329-.6095,1.5384-1.1328,2.4096-1.5643,1.5568-.7703,3.2818-1.1607,5.1265-1.1607,2.2817,0,4.363.5812,6.1865,1.7278,1.8102,1.1411,3.2571,2.7054,4.3003,4.6501,1.0392,1.9406,1.5666,4.1581,1.5666,6.5918,0,2.4435-.5758,4.6768-1.7117,6.6384-1.1354,1.9581-2.6876,3.5259-4.6141,4.6601-1.9322,1.1371-4.1529,1.714-6.6004,1.714h-.0001Zm0-20.2869c-1.3012,0-2.4429.3078-3.4902.9413-1.0386.6281-1.8637,1.4927-2.4527,2.5687-.5936,1.0841-.8947,2.3502-.8947,3.7643,0,1.3887.3022,2.6571.8987,3.7706.5895,1.1031,1.4129,1.9794,2.4487,2.6059,1.0473.6333,2.1884.9413,3.4902.9413,1.3294,0,2.4769-.3069,3.5086-.939,1.0242-.627,1.8505-1.5067,2.4556-2.6145.6091-1.1141.9177-2.3801.9177-3.7643,0-1.4094-.3074-2.6732-.9137-3.7568-.6046-1.0815-1.4325-1.9492-2.4602-2.5791-1.0311-.6313-2.1786-.9385-3.5081-.9385h0Z"/>
          <path class="cls-2" d="m206.1304,54.9042c-2.5022,0-4.7494-.5602-6.6787-1.6656-1.9334-1.106-3.4758-2.656-4.5836-4.6066-1.1043-1.9431-1.664-4.1966-1.664-6.6971,0-2.5281.5596-4.7963,1.664-6.7409,1.1078-1.9498,2.6502-3.4994,4.5842-4.6063,1.9305-1.1052,4.1771-1.6656,6.6782-1.6656,2.47,0,4.7022.5602,6.6343,1.6653,1.9339,1.108,3.4758,2.6576,4.583,4.6063,1.1049,1.946,1.6645,4.2136,1.6645,6.7412,0,2.4976-.5516,4.7494-1.6398,6.6926-1.0945,1.9529-2.63,3.504-4.564,4.6112-1.9305,1.1054-4.1776,1.6656-6.6782,1.6656h0Zm0-20.2869c-1.3438,0-2.5408.3097-3.5587.9209-1.0346.6206-1.8286,1.4593-2.4262,2.5639-.5953,1.1003-.897,2.3899-.897,3.8328s.3011,2.7233.8947,3.8075c.5982,1.0916,1.3922,1.9241,2.4279,2.546,1.0191.6114,2.2167.9212,3.5593.9212s2.5391-.3097,3.5582-.9212c1.0197-.6126,1.8281-1.4665,2.402-2.5385.5821-1.0859.8775-2.3692.8775-3.8149s-.296-2.7383-.8791-3.8397c-.5746-1.0856-1.3824-1.9457-2.4009-2.5569-1.0179-.6111-2.2149-.9209-3.5576-.9209h-.0001Z"/>
        </g>
        <g>
          <path class="cls-1" d="m0,27.7475v28.3308c1.25,3.9386,6.5041,3.5796,12.9794,1.9101,14.969-4.6069,29.603-9.9937,44.4173-15.2752,3.1183-.9818,3.3419-1.856.2019-2.933-14.693-4.6687-29.3861-9.3376-44.0791-14.0063C6.0916,23.7529.9471,23.8259,0,27.7475h0Z"/>
          <path class="cls-1" d="m0,62.0737v12.7342c6.2073,11.192,13.2965,10.7374,20.7643,5.2847,14.1506-10.2394,27.4488-20.8883,40.2355-31.4537,1.1643-1.2604,1.2442-1.9206-1.1525-1.2096-13.7929,4.9451-27.5857,9.8903-41.3784,14.8354C11.2005,65.1382,4.5657,66.3383,0,62.0737h0Z"/>
          <path class="cls-1" d="m0,21.7524v-12.7342C6.2073-2.1738,13.2965-1.7192,20.7643,3.7335c14.1506,10.2394,27.4488,20.8883,40.2355,31.4537,1.1643,1.2604,1.2442,1.9206-1.1525,1.2096-13.7929-4.9451-27.5857-9.8903-41.3784-14.8354C11.2005,18.6879,4.5657,17.4878,0,21.7524h0Z"/>
        </g>
      </g>
    </g>
  </g>
</svg>